<?xml version="1.0" encoding="UTF-8"?>
<svg version="1.1" xmlns="http://www.w3.org/2000/svg" width="500" height="500">
<path d="M0 0 C11.65975104 -0.56016598 11.65975104 -0.56016598 17 3 C17.99 3.99 17.99 3.99 19 5 C20.65697379 5.69040574 22.3255761 6.3530635 24 7 C26 8 28 9 30 10 C30.9075 10.309375 31.815 10.61875 32.75 10.9375 C35.43828635 12.20696855 35.99519595 13.25962533 37 16 C33.67586928 19.69347858 29.70963307 22.43012231 25 24 C23.85152633 25.14847367 22.70647885 26.30064894 21.58203125 27.47265625 C17.39848104 31.51158991 12.60733118 34.94905269 7.75 38.125 C4.858225 39.96428282 4.858225 39.96428282 2.3125 42.75 C0 45 0 45 -3 45 C-3.25136719 45.59941406 -3.50273437 46.19882813 -3.76171875 46.81640625 C-5.16650809 49.29362153 -6.48305348 50.32960288 -8.8125 51.9375 C-12.21057407 54.37871567 -15.11213018 56.95602911 -18 60 C-21.18581508 63.26546045 -24.41483139 66.1830818 -28 69 C-31.45423535 71.79363274 -34.59199297 74.50829922 -37.4375 77.9375 C-40.12140661 81.1450957 -42.9981992 83.65627698 -46.23046875 86.2890625 C-48.10031665 88.0969949 -48.85565353 89.69307046 -50 92 C-51.70193561 93.60559963 -53.4994642 94.99958226 -55.34375 96.4375 C-57.17170366 98.16198459 -57.93526701 99.74474277 -59 102 C-60.64429829 103.68873879 -62.31384218 105.35305515 -64 107 C-65.70341539 108.97109495 -67.34521367 110.98742203 -69 113 C-69.66 113.66 -70.32 114.32 -71 115 C-71.66 115.86625 -72.32 116.7325 -73 117.625 C-73.66 118.40875 -74.32 119.1925 -75 120 C-75.66 120 -76.32 120 -77 120 C-77.0825 120.53625 -77.165 121.0725 -77.25 121.625 C-79.15202171 127.64806875 -83.17496238 131.27156184 -88 135 C-88.7425 134.525625 -89.485 134.05125 -90.25 133.5625 C-92.66296777 132.19149559 -94.35143888 131.59806219 -97 131 C-98.34187818 130.3507041 -99.67479497 129.68268138 -101 129 C-104.61050586 127.47978701 -108.27565646 126.21257697 -112 125 C-112 124.34 -112 123.68 -112 123 C-112.639375 123.0825 -113.27875 123.165 -113.9375 123.25 C-118.40292757 122.8854753 -122.00911228 120.94762276 -126 119 C-126 118.34 -126 117.68 -126 117 C-127.485 117.495 -127.485 117.495 -129 118 C-131.234375 117.109375 -131.234375 117.109375 -133.75 115.75 C-136.81932862 114.118717 -139.80429976 112.64499036 -143.0625 111.4375 C-146 110 -146 110 -146.9375 107.8125 C-146.958125 107.214375 -146.97875 106.61625 -147 106 C-142.41176471 102.17647059 -142.41176471 102.17647059 -139.8125 101.0625 C-137.2682881 99.57106544 -137.05243506 97.69686485 -136 95 C-132.68965517 92 -132.68965517 92 -130 92 C-130 91.34 -130 90.68 -130 90 C-129.34 90 -128.68 90 -128 90 C-127.505 88.515 -127.505 88.515 -127 87 C-125.66666667 86.33333333 -124.33333333 85.66666667 -123 85 C-121.31126121 83.35570171 -119.64694485 81.68615782 -118 80 C-116 78.33333333 -114 76.66666667 -112 75 C-110.700625 73.63875 -110.700625 73.63875 -109.375 72.25 C-106.95129552 69.95385891 -106.06405896 69.73960044 -103 69 C-102.7215625 68.3915625 -102.443125 67.783125 -102.15625 67.15625 C-100.72542634 64.48795722 -99.2597162 63.62312193 -96.6875 62.0625 C-93.85016221 60.27265449 -91.40642827 58.58782624 -89.125 56.125 C-88.42375 55.42375 -87.7225 54.7225 -87 54 C-86.01 54 -85.02 54 -84 54 C-83.773125 53.38125 -83.54625 52.7625 -83.3125 52.125 C-81.59553725 49.34515555 -80.003177 49.18730254 -77 48 C-76.154375 47.154375 -75.30875 46.30875 -74.4375 45.4375 C-71.98215186 42.98215186 -71.19539381 42.68472724 -68 42 C-67.67 41.01 -67.34 40.02 -67 39 C-65.109375 37.75390625 -65.109375 37.75390625 -62.75 36.5625 C-59.1538078 34.67578549 -56.14887925 32.57635575 -53 30 C-52.34 30 -51.68 30 -51 30 C-50.67 29.34 -50.34 28.68 -50 28 C-48.36021682 26.95650161 -46.68535024 25.96817992 -45 25 C-42.91928958 23.66866421 -40.84236083 22.3318553 -38.76953125 20.98828125 C-37 20 -37 20 -35 20 C-35 19.34 -35 18.68 -35 18 C-31.98311689 16.49155845 -28.96666638 14.98367333 -25.9375 13.5 C-23.08020467 12.08669408 -23.08020467 12.08669408 -20.7578125 10.63671875 C-17.54763696 8.73152959 -14.26404272 7.00222849 -10.9375 5.3125 C-10.32583984 4.99216797 -9.71417969 4.67183594 -9.08398438 4.34179688 C-5.70971719 2.63095222 -3.8723276 2 0 2 C0 1.34 0 0.68 0 0 Z " fill="#08382C" transform="translate(295,140)"/>
<path d="M0 0 C0.99 0.33 1.98 0.66 3 1 C3 1.66 3 2.32 3 3 C3.53625 2.773125 4.0725 2.54625 4.625 2.3125 C8.05187759 1.86159505 9.97402612 3.42649358 13 5 C16.02934491 5.65772428 16.02934491 5.65772428 19 6 C22.79820611 6.69058293 25.35614893 7.64880851 28.75 9.5 C31.90500457 11.1494469 31.90500457 11.1494469 35.25 11.4375 C36.61125 11.7159375 36.61125 11.7159375 38 12 C39.171875 14.03515625 39.171875 14.03515625 40 16 C35.11992016 19.35098815 30.32600771 22.39617401 25 25 C23.9275 25.721875 22.855 26.44375 21.75 27.1875 C19 29 19 29 17 29 C16.401875 29.61875 15.80375 30.2375 15.1875 30.875 C12.84546675 33.15011802 11.00616302 33.84378345 8 35 C6.99701048 35.99700152 5.9976932 36.99769851 5 38 C3.18783961 39.40278681 1.35227634 40.77562664 -0.5 42.125 C-1.4590625 42.82882813 -2.418125 43.53265625 -3.40625 44.2578125 C-6 46 -6 46 -9 47 C-9.61875 47.61875 -10.2375 48.2375 -10.875 48.875 C-13.0983023 51.0983023 -15.22452494 52.53922366 -18 54 C-18.66 54 -19.32 54 -20 54 C-20.33 54.99 -20.66 55.98 -21 57 C-22.99609375 58.60546875 -22.99609375 58.60546875 -25.4375 60.1875 C-26.24058594 60.71730469 -27.04367188 61.24710938 -27.87109375 61.79296875 C-30 63 -30 63 -32 63 C-32.495 64.485 -32.495 64.485 -33 66 C-34.53125 67.359375 -34.53125 67.359375 -36.5 68.75 C-37.21929687 69.26949219 -37.93859375 69.78898437 -38.6796875 70.32421875 C-39.82824219 71.15373047 -39.82824219 71.15373047 -41 72 C-42.54736694 73.18006267 -44.08906557 74.36759508 -45.625 75.5625 C-46.37265625 76.14257812 -47.1203125 76.72265625 -47.890625 77.3203125 C-49.765939 78.81361809 -51.57250548 80.35808649 -53.375 81.9375 C-56 84 -56 84 -59 84 C-59.24878906 84.59296875 -59.49757813 85.1859375 -59.75390625 85.796875 C-61.17974226 88.31778882 -62.61616713 89.53817911 -64.9375 91.25 C-65.62714844 91.77078125 -66.31679687 92.2915625 -67.02734375 92.828125 C-69 94 -69 94 -72 94 C-72 94.66 -72 95.32 -72 96 C-78.11603519 95.64947624 -82.53403886 94.91517927 -88 92 C-90.32031805 91.58565749 -92.65639085 91.25110098 -95 91 C-99.31334891 90.33640786 -102.84181179 89.64643063 -106.6875 87.5 C-110.65290811 85.7043435 -113.67253622 85.41213941 -118 85 C-121.44076736 84.45260519 -123.90790118 83.54604941 -127 82 C-129.3243602 81.30269194 -131.65673706 80.63087848 -134 80 C-133.45925627 76.21479387 -131.92427254 74.40822445 -129 72 C-128.01 72 -127.02 72 -126 72 C-125.75765625 71.40058594 -125.5153125 70.80117187 -125.265625 70.18359375 C-123.75244564 67.57289233 -122.30797871 66.63295972 -119.75 65.0625 C-116.87588916 63.24192175 -114.19310862 61.42007684 -111.625 59.1875 C-109 57 -109 57 -106 56 C-105.236875 55.195625 -104.47375 54.39125 -103.6875 53.5625 C-100.82704508 50.83508949 -98.78193472 49.96747167 -95 49 C-95 48.34 -95 47.68 -95 47 C-93.53125 45.88671875 -93.53125 45.88671875 -91.5 44.6875 C-90.76523438 44.24664062 -90.03046875 43.80578125 -89.2734375 43.3515625 C-88.52320313 42.90554687 -87.77296875 42.45953125 -87 42 C-85.70627674 41.19077868 -84.41455791 40.37834276 -83.125 39.5625 C-78.45578648 36.64309036 -73.72795185 33.82288806 -69 31 C-68.16855469 30.49855469 -67.33710937 29.99710938 -66.48046875 29.48046875 C-56.79884737 23.70198922 -56.79884737 23.70198922 -52.4375 22 C-49.33327352 20.72647119 -46.72709831 18.91599211 -43.96484375 17.0234375 C-42 16 -42 16 -38 16 C-38 15.34 -38 14.68 -38 14 C-36.5459375 13.814375 -36.5459375 13.814375 -35.0625 13.625 C-33.5465625 13.315625 -33.5465625 13.315625 -32 13 C-31.67 12.34 -31.34 11.68 -31 11 C-28.4375 10.375 -28.4375 10.375 -26 10 C-26 9.34 -26 8.68 -26 8 C-25.4225 7.87625 -24.845 7.7525 -24.25 7.625 C-21.94207782 6.9839105 -20.11506952 6.11974269 -18 5 C-5.68115942 -1.15942029 -5.68115942 -1.15942029 0 0 Z " fill="#08372C" transform="translate(195,146)"/>
<path d="M0 0 C6.02568559 0.12614157 11.12836065 2.1365812 16.625 4.4375 C19.00511636 5.42414058 19.00511636 5.42414058 21.9375 5.8125 C24.88872562 6.30437094 27.20497829 7.12140079 29.9375 8.3125 C32.89927553 9.51321981 35.87325975 10.65430774 38.875 11.75 C42.36157711 13.04687635 45.60935699 14.64842849 48.9375 16.3125 C50.9817186 17.11189288 53.03904025 17.86646101 55.1015625 18.6171875 C57.12394678 19.38311176 59.03614289 20.28259823 60.9375 21.3125 C60.9375 21.9725 60.9375 22.6325 60.9375 23.3125 C61.824375 23.415625 62.71125 23.51875 63.625 23.625 C67.05004509 24.33585841 69.02156617 25.44331165 71.9375 27.3125 C73.2678125 27.8384375 73.2678125 27.8384375 74.625 28.375 C76.9375 29.3125 76.9375 29.3125 78.9375 31.3125 C80.58741582 32.01960678 82.25312256 32.69193989 83.9375 33.3125 C83.9375 33.9725 83.9375 34.6325 83.9375 35.3125 C84.72125 35.456875 85.505 35.60125 86.3125 35.75 C88.9375 36.3125 88.9375 36.3125 90.9375 37.3125 C90.9375 37.9725 90.9375 38.6325 90.9375 39.3125 C92.4225 39.8075 92.4225 39.8075 93.9375 40.3125 C93.9375 44.3125 93.9375 44.3125 91.6875 46.9375 C88.9375 49.3125 88.9375 49.3125 86.9375 50.25 C83.86184895 51.88393962 82.14029456 54.65785015 79.9375 57.3125 C78.4525 57.8075 78.4525 57.8075 76.9375 58.3125 C76.2775 59.158125 75.6175 60.00375 74.9375 60.875 C74.2775 61.679375 73.6175 62.48375 72.9375 63.3125 C71.9475 63.3125 70.9575 63.3125 69.9375 63.3125 C69.6075 64.3025 69.2775 65.2925 68.9375 66.3125 C63.54041641 65.88919933 60.98765579 64.82974055 56.9375 61.3125 C54.2580355 60.07233331 54.2580355 60.07233331 51.9375 59.3125 C51.9375 58.6525 51.9375 57.9925 51.9375 57.3125 C51.050625 57.044375 50.16375 56.77625 49.25 56.5 C43.93809545 54.59573233 39.61105543 51.42820362 34.9375 48.3125 C32.39321377 46.6990502 30.0532719 45.35827029 27.25 44.25 C24.9375 43.3125 24.9375 43.3125 22.9375 41.3125 C21.58234905 40.56689486 20.20479966 39.86119338 18.8125 39.1875 C18.08804688 38.83429688 17.36359375 38.48109375 16.6171875 38.1171875 C16.06289063 37.85164063 15.50859375 37.58609375 14.9375 37.3125 C14.9375 36.6525 14.9375 35.9925 14.9375 35.3125 C13.9475 35.6425 12.9575 35.9725 11.9375 36.3125 C9.59765625 35.16796875 9.59765625 35.16796875 7 33.5 C-0.02786621 29.03735796 -7.28671981 26.21194346 -15.0625 23.3125 C-15.0625 22.6525 -15.0625 21.9925 -15.0625 21.3125 C-16.0525 21.6425 -17.0425 21.9725 -18.0625 22.3125 C-20.0625 21.3125 -22.0625 20.3125 -24.0625 19.3125 C-26.81396274 19.05965633 -26.81396274 19.05965633 -29.0625 19.3125 C-29.7225 17.9925 -30.3825 16.6725 -31.0625 15.3125 C-30.423125 15.209375 -29.78375 15.10625 -29.125 15 C-28.1040625 14.6596875 -28.1040625 14.6596875 -27.0625 14.3125 C-26.7325 13.3225 -26.4025 12.3325 -26.0625 11.3125 C-25.0725 11.6425 -24.0825 11.9725 -23.0625 12.3125 C-23.0625 11.6525 -23.0625 10.9925 -23.0625 10.3125 C-21.1875 9.25 -21.1875 9.25 -19.0625 8.3125 C-18.4025 8.6425 -17.7425 8.9725 -17.0625 9.3125 C-17.0625 8.6525 -17.0625 7.9925 -17.0625 7.3125 C-14.1769039 5.83614851 -11.33769853 4.4188267 -8.3125 3.25 C-0.51909164 0.00274652 -0.51909164 0.00274652 0 0 Z " fill="#52A543" transform="translate(342.0625,116.6875)"/>
<path d="M0 0 C1.36125 0.99 1.36125 0.99 2.75 2 C6.99069699 4.56673765 11.30361669 6.81658712 15.75 9 C17.08379694 9.66573865 18.41726084 10.3321463 19.75 11 C19.75 11.66 19.75 12.32 19.75 13 C20.62527344 13.26039063 21.50054687 13.52078125 22.40234375 13.7890625 C25.73700574 14.99529963 28.34844872 16.44393956 31.3125 18.375 C32.22128906 18.96023437 33.13007813 19.54546875 34.06640625 20.1484375 C36.75 22 36.75 22 39.26171875 24.01171875 C42.55597065 26.64401737 46.08746667 28.85569251 49.640625 31.12109375 C52.17820873 33.38142296 52.55013113 34.65084592 52.75 38 C51.8125 40.3125 51.8125 40.3125 50.75 42 C50.09 42 49.43 42 48.75 42 C48.42 42.99 48.09 43.98 47.75 45 C46.10697047 46.68997323 44.43528688 48.35216394 42.75 50 C41.16973987 51.86300275 39.61748218 53.74446136 38.08203125 55.64453125 C37.64246094 56.09183594 37.20289063 56.53914063 36.75 57 C36.09 57 35.43 57 34.75 57 C34.6675 57.598125 34.585 58.19625 34.5 58.8125 C33.53667588 61.62219534 32.11620289 62.27912517 29.75 64 C29.399375 64.70125 29.04875 65.4025 28.6875 66.125 C28.378125 66.74375 28.06875 67.3625 27.75 68 C26.265 68.495 26.265 68.495 24.75 69 C23.08289654 70.49985609 23.08289654 70.49985609 21.75 72 C21.193125 71.566875 20.63625 71.13375 20.0625 70.6875 C17.79344411 68.96944203 17.79344411 68.96944203 15.375 67.625 C7.68103448 62.86206897 7.68103448 62.86206897 5.75 59 C5.028125 58.731875 4.30625 58.46375 3.5625 58.1875 C0.65625913 56.96042052 -1.34889351 55.35824311 -3.7109375 53.29296875 C-6.07315579 51.30846556 -8.67693209 49.6971299 -11.25 48 C-16.07142857 44.35714286 -16.07142857 44.35714286 -17.25 42 C-18.24 42 -19.23 42 -20.25 42 C-20.25 41.34 -20.25 40.68 -20.25 40 C-21.013125 39.731875 -21.77625 39.46375 -22.5625 39.1875 C-25.90822371 37.70915696 -27.6206485 36.25870301 -29.25 33 C-30.3946875 32.566875 -30.3946875 32.566875 -31.5625 32.125 C-34.53908843 30.87898624 -36.11007284 29.37769684 -38.25 27 C-36.90567856 21.28663387 -32.8085901 19.13450162 -28.25 16 C-27.37730469 15.360625 -26.50460937 14.72125 -25.60546875 14.0625 C-18.6343246 9 -18.6343246 9 -15.25 9 C-15.25 8.34 -15.25 7.68 -15.25 7 C-14.59 7 -13.93 7 -13.25 7 C-12.92 6.01 -12.59 5.02 -12.25 4 C-8.34250415 0.85755071 -4.94976934 -1.52300595 0 0 Z " fill="#52A543" transform="translate(347.25,160)"/>
<path d="M0 0 C0.85800705 0.00187317 1.7160141 0.00374634 2.60002136 0.00567627 C4.40957543 0.012376 6.21911553 0.02624899 8.02856445 0.046875 C10.77374013 0.07790763 13.5183384 0.08784129 16.26367188 0.09375 C18.02995479 0.10292711 19.79623196 0.11330512 21.5625 0.125 C22.77701591 0.13137482 22.77701591 0.13137482 24.0160675 0.13787842 C30.78574448 0.22117925 37.40749033 0.64375241 43.98046875 2.328125 C45.58166744 2.52123439 47.18640258 2.68644357 48.79296875 2.828125 C59.93040551 3.89273293 59.93040551 3.89273293 63.54296875 5.390625 C66.02160177 6.51135391 66.02160177 6.51135391 69.04296875 6.328125 C72.18588839 6.328125 73.26167917 6.92753643 75.98046875 8.328125 C78.31294636 8.66739447 80.64632346 9.00052566 82.98046875 9.328125 C84.66624586 9.94487272 86.33494913 10.61084722 87.98046875 11.328125 C88.92921875 11.6375 89.87796875 11.946875 90.85546875 12.265625 C94.31999228 13.443563 97.62733701 14.86494024 100.98046875 16.328125 C103.56139902 17.37278725 106.05890712 18.35129997 108.73046875 19.140625 C110.98046875 20.328125 110.98046875 20.328125 111.79296875 22.953125 C111.85484375 23.736875 111.91671875 24.520625 111.98046875 25.328125 C110.99046875 25.988125 110.00046875 26.648125 108.98046875 27.328125 C108.32046875 26.998125 107.66046875 26.668125 106.98046875 26.328125 C106.98046875 26.988125 106.98046875 27.648125 106.98046875 28.328125 C103.92191957 29.85739959 100.86348575 31.38546961 97.79296875 32.890625 C94.88339891 34.30960284 94.88339891 34.30960284 91.98046875 36.328125 C91.32046875 35.998125 90.66046875 35.668125 89.98046875 35.328125 C89.98046875 35.988125 89.98046875 36.648125 89.98046875 37.328125 C88.99046875 37.328125 88.00046875 37.328125 86.98046875 37.328125 C86.48546875 38.318125 86.48546875 38.318125 85.98046875 39.328125 C83.16796875 40.890625 83.16796875 40.890625 79.98046875 42.328125 C79.34109375 42.6375 78.70171875 42.946875 78.04296875 43.265625 C75.08535399 43.35524969 73.17760706 41.91090619 70.73046875 40.38671875 C68.57610888 39.08352338 66.34262541 38.18709106 63.98046875 37.328125 C63.98046875 36.668125 63.98046875 36.008125 63.98046875 35.328125 C63.23796875 35.369375 62.49546875 35.410625 61.73046875 35.453125 C58.77028343 35.31857112 57.51454775 34.78714018 54.98046875 33.328125 C50.89263133 31.10647423 47.56067363 30.0251127 42.98046875 29.328125 C42.36945313 29.00199219 41.7584375 28.67585938 41.12890625 28.33984375 C38.59952331 27.14873433 36.5095885 26.92252919 33.73046875 26.703125 C32.8384375 26.62835938 31.94640625 26.55359375 31.02734375 26.4765625 C30.351875 26.42757812 29.67640625 26.37859375 28.98046875 26.328125 C28.98046875 25.668125 28.98046875 25.008125 28.98046875 24.328125 C27.33046875 24.658125 25.68046875 24.988125 23.98046875 25.328125 C23.98046875 24.668125 23.98046875 24.008125 23.98046875 23.328125 C23.25859375 23.534375 22.53671875 23.740625 21.79296875 23.953125 C18.49931168 24.39227928 16.96689956 23.66415984 13.98046875 22.328125 C11.95952803 22.328125 9.93848875 22.3493899 7.91796875 22.390625 C4.98046875 22.328125 4.98046875 22.328125 2.98046875 21.328125 C0.81708784 21.12317312 -1.3506213 20.96248225 -3.51953125 20.828125 C-9.79730903 20.43923611 -9.79730903 20.43923611 -12.01953125 19.328125 C-13.83124223 19.17505599 -15.64791065 19.07865839 -17.46484375 19.01171875 C-18.54121094 18.96982422 -19.61757812 18.92792969 -20.7265625 18.88476562 C-21.85449219 18.84544922 -22.98242188 18.80613281 -24.14453125 18.765625 C-25.28019531 18.72244141 -26.41585937 18.67925781 -27.5859375 18.63476562 C-30.39700893 18.5284646 -33.2081707 18.42643095 -36.01953125 18.328125 C-35.66015625 16.39453125 -35.66015625 16.39453125 -35.01953125 14.328125 C-32.76953125 13.265625 -32.76953125 13.265625 -30.01953125 12.328125 C-28.34533687 11.3407796 -26.67901273 10.34000395 -25.01953125 9.328125 C-19.46397569 6.328125 -19.46397569 6.328125 -16.01953125 6.328125 C-15.68953125 5.338125 -15.35953125 4.348125 -15.01953125 3.328125 C-10.04374186 0.00866335 -5.75740331 -0.08714131 0 0 Z " fill="#51A442" transform="translate(174.01953125,113.671875)"/>
<path d="M0 0 C0.680625 0.165 1.36125 0.33 2.0625 0.5 C4 1 4 1 5.8125 2 C8.15366183 3.21127922 8.15366183 3.21127922 11.625 3.375 C15 4 15 4 16.4375 6.0625 C16.623125 6.701875 16.80875 7.34125 17 8 C15.6696875 8.433125 15.6696875 8.433125 14.3125 8.875 C12.37767375 9.5321108 10.45295869 10.2244272 8.5625 11 C5.42788385 12.22326484 2.23885135 13.09084874 -1 14 C-3.00405227 14.65438441 -5.00428677 15.32060826 -7 16 C-7.94875 16.309375 -8.8975 16.61875 -9.875 16.9375 C-14.87154518 18.63632536 -19.77781678 20.47319689 -24.625 22.5625 C-30.09683066 24.89309454 -35.08246278 26.28989553 -41 27 C-41 27.66 -41 28.32 -41 29 C-42.0725 29.28875 -43.145 29.5775 -44.25 29.875 C-47.83453138 30.82642346 -47.83453138 30.82642346 -50.3125 32.1875 C-50.869375 32.455625 -51.42625 32.72375 -52 33 C-52.99 32.505 -52.99 32.505 -54 32 C-54.33 32.99 -54.66 33.98 -55 35 C-60.18330802 36.83923833 -64.11131617 34.7860886 -69 33 C-74.30726814 31.43392088 -79.57007999 30.05581778 -85 29 C-85 28.34 -85 27.68 -85 27 C-86.98567708 27.03255208 -88.97135417 27.06510417 -90.95703125 27.09765625 C-93 27 -93 27 -96 26 C-96 25.34 -96 24.68 -96 24 C-96.99 23.67 -97.98 23.34 -99 23 C-93.68027653 18.6654105 -87.37382849 17.10165828 -80.9375 15 C-79.12780993 14.38393529 -77.33112476 13.72558965 -75.5625 13 C-70.00627897 10.83171862 -64.73924714 9.7450337 -58.8203125 9.34375 C-58.21960938 9.2303125 -57.61890625 9.116875 -57 9 C-56.67 8.34 -56.34 7.68 -56 7 C-53.5234375 6.4375 -53.5234375 6.4375 -50.375 6 C-45.770487 5.30877878 -41.47530928 4.2909546 -37 3 C-35.60683827 2.81230648 -34.2106225 2.64622566 -32.8125 2.5 C-29.20075103 2.24973458 -29.20075103 2.24973458 -27.03515625 0.96875 C-24.66931263 -0.15740973 -23.22065775 -0.14572114 -20.625 0 C-12.63788971 0.20949797 -7.89025523 -3.43934202 0 0 Z " fill="#07352A" transform="translate(354,94)"/>
<path d="M0 0 C1.16493484 -0.00315216 2.32986969 -0.00630432 3.53010559 -0.009552 C5.42692329 -0.00651566 5.42692329 -0.00651566 7.36206055 -0.00341797 C8.65693893 -0.00437469 9.95181732 -0.00533142 11.28593445 -0.00631714 C14.03064157 -0.00779292 16.77531618 -0.00564444 19.52001953 -0.00097656 C23.03047703 0.00470379 26.5408578 0.00145176 30.05131245 -0.00454903 C33.4049012 -0.00904398 36.75846962 -0.0058903 40.11206055 -0.00341797 C41.37053299 -0.0054422 42.62900543 -0.00746643 43.9256134 -0.009552 C45.10000473 -0.00639984 46.27439606 -0.00324768 47.484375 0 C48.51536819 0.00079559 49.54636139 0.00159119 50.6085968 0.00241089 C53.3216313 0.124246 55.79438108 0.51868964 58.4362793 1.12939453 C58.4362793 2.11939453 58.4362793 3.10939453 58.4362793 4.12939453 C56.4362793 5.12939453 54.4362793 6.12939453 52.4362793 7.12939453 C51.4256543 7.68626953 50.4150293 8.24314453 49.3737793 8.81689453 C46.41315014 10.13972883 44.6279539 10.41101288 41.4362793 10.12939453 C41.4362793 10.78939453 41.4362793 11.44939453 41.4362793 12.12939453 C39.7862793 12.12939453 38.1362793 12.12939453 36.4362793 12.12939453 C36.4362793 12.78939453 36.4362793 13.44939453 36.4362793 14.12939453 C34.45881326 14.8601972 32.45555441 15.523612 30.4362793 16.12939453 C29.7762793 15.79939453 29.1162793 15.46939453 28.4362793 15.12939453 C28.4362793 15.78939453 28.4362793 16.44939453 28.4362793 17.12939453 C26.10333154 17.17181176 23.76925363 17.17032391 21.4362793 17.12939453 C21.1062793 16.79939453 20.7762793 16.46939453 20.4362793 16.12939453 C18.50005993 16.12939453 16.56375313 16.13249414 14.62768555 16.15673828 C9.09074318 16.08764987 3.6000823 14.88194792 -1.77148438 13.60424805 C-5.0959638 13.03888016 -8.24198319 13.01738714 -11.61450195 13.03173828 C-12.60271187 13.0338607 -12.60271187 13.0338607 -13.61088562 13.036026 C-15.69937832 13.04158953 -17.78776082 13.05413506 -19.8762207 13.06689453 C-21.29874519 13.07191425 -22.72127137 13.07647633 -24.14379883 13.08056641 C-27.61714147 13.09154696 -31.09042032 13.10878618 -34.5637207 13.12939453 C-34.5637207 12.46939453 -34.5637207 11.80939453 -34.5637207 11.12939453 C-30.41104895 8.01489071 -30.41104895 8.01489071 -27.2512207 8.44189453 C-26.6943457 8.66876953 -26.1374707 8.89564453 -25.5637207 9.12939453 C-25.5637207 8.46939453 -25.5637207 7.80939453 -25.5637207 7.12939453 C-24.5118457 6.84064453 -23.4599707 6.55189453 -22.3762207 6.25439453 C-18.71613227 5.25565506 -18.71613227 5.25565506 -15.9387207 4.00439453 C-13.33006341 3.04331027 -11.32134999 2.97181571 -8.5637207 3.12939453 C-8.2337207 2.46939453 -7.9037207 1.80939453 -7.5637207 1.12939453 C-4.92605797 -0.18943684 -2.95372826 0.00228461 0 0 Z " fill="#50A241" transform="translate(220.563720703125,96.87060546875)"/>
<path d="M0 0 C73.92 0 147.84 0 224 0 C224 1.32 224 2.64 224 4 C150.08 4 76.16 4 0 4 C0 2.68 0 1.36 0 0 Z " fill="#55A745" transform="translate(138,406)"/>
<path d="M0 0 C0.886875 -0.00257812 1.77375 -0.00515625 2.6875 -0.0078125 C5 0.125 5 0.125 7 1.125 C7 1.785 7 2.445 7 3.125 C7.99 2.795 8.98 2.465 10 2.125 C11.68208635 3.09883946 13.34738161 4.10195052 15 5.125 C16.66014616 5.48942233 18.32706064 5.82472883 20 6.125 C23.28910202 7.44064081 23.94125896 8.03688844 26 11.125 C25.67 11.785 25.34 12.445 25 13.125 C23.68225804 13.51544206 22.34332728 13.83455086 21 14.125 C19.453125 14.681875 19.453125 14.681875 17.875 15.25 C15 16.125 15 16.125 13 15.125 C12.67 15.785 12.34 16.445 12 17.125 C9.67684969 17.8263284 7.34210921 18.48985174 5 19.125 C4.35417969 19.46917969 3.70835937 19.81335938 3.04296875 20.16796875 C-0.51745364 21.83585305 -4.15265165 21.58157886 -8 21.125 C-11.1875 19.6875 -11.1875 19.6875 -14 18.125 C-15.99628664 17.7701046 -17.99690671 17.43921071 -20 17.125 C-24.36324521 15.87300352 -28.2060041 14.6543306 -32 12.125 C-31.67 11.135 -31.34 10.145 -31 9.125 C-28.25 8.0625 -28.25 8.0625 -25 7.125 C-22.54222141 6.16586689 -20.10904077 5.17215277 -17.6875 4.125 C-15.38782247 3.26930604 -13.19038364 2.64194818 -10.8125 2.0625 C-2.39666731 -0.00696706 -2.39666731 -0.00696706 0 0 Z " fill="#073429" transform="translate(384,102.875)"/>
<path d="M0 0 C4.61981778 3.95984381 8.75373778 7.69597452 12.75 12.1875 C15.44732543 15.18576669 18.14652145 18.14652145 21 21 C21.33 14.4 21.66 7.8 22 1 C23.65 1 25.3 1 27 1 C27 11.89 27 22.78 27 34 C19.125 27.25 19.125 27.25 16.03515625 23.9140625 C15.38095703 23.21152344 14.72675781 22.50898438 14.05273438 21.78515625 C13.39595703 21.07230469 12.73917969 20.35945313 12.0625 19.625 C11.37865234 18.88894531 10.69480469 18.15289062 9.99023438 17.39453125 C8.32342381 15.59950449 6.66122614 13.80019616 5 12 C4.67 18.6 4.34 25.2 4 32 C2.68 32 1.36 32 0 32 C0 21.44 0 10.88 0 0 Z " fill="#07392A" transform="translate(78,352)"/>
<path d="M0 0 C7.875 6.75 7.875 6.75 10.96484375 10.0859375 C11.55644287 10.72063965 12.14804199 11.3553418 12.75756836 12.00927734 C13.4769458 12.78996582 14.19632324 13.5706543 14.9375 14.375 C17.268125 16.89125 19.59875 19.4075 22 22 C22.33 15.07 22.66 8.14 23 1 C24.32 1 25.64 1 27 1 C27 11.89 27 22.78 27 34 C22.65300755 30.27400647 19.08807259 27.19513314 15.4375 23 C12.07467293 19.14971727 8.63985934 15.63985934 5 12 C4.67 18.6 4.34 25.2 4 32 C2.68 32 1.36 32 0 32 C0 21.44 0 10.88 0 0 Z " fill="#08392D" transform="translate(241,352)"/>
<path d="M0 0 C12.42307692 0 12.42307692 0 16 3 C18.41486943 5.41486943 18.2961925 6.12707789 18.3125 9.4375 C18.32925781 10.21996094 18.34601563 11.00242187 18.36328125 11.80859375 C17.91868615 14.49050614 17.1442358 15.37747608 15 17 C14.34 17 13.68 17 13 17 C14.98 21.62 16.96 26.24 19 31 C17.02 31 15.04 31 13 31 C12.16209211 29.21046815 11.32980604 27.41830305 10.5 25.625 C10.0359375 24.62726563 9.571875 23.62953125 9.09375 22.6015625 C8 20 8 20 8 18 C7.01 18 6.02 18 5 18 C5 22.29 5 26.58 5 31 C3.35 31 1.7 31 0 31 C0 20.77 0 10.54 0 0 Z M5 5 C5 7.97 5 10.94 5 14 C8.465 13.505 8.465 13.505 12 13 C12.66 11.35 13.32 9.7 14 8 C12.87890434 6.37506099 12.87890434 6.37506099 11 5 C7.87450983 4.74951364 7.87450983 4.74951364 5 5 Z " fill="#08382C" transform="translate(363,353)"/>
<path d="M0 0 C4.78775956 3.53613714 9.46451416 7.14483704 14 11 C14 7.7 14 4.4 14 1 C15.98 1 17.96 1 20 1 C20 8.26 20 15.52 20 23 C16.4125144 21.2062572 13.83243778 19.3896203 10.75 16.875 C9.85796875 16.15054687 8.9659375 15.42609375 8.046875 14.6796875 C7.37140625 14.12539063 6.6959375 13.57109375 6 13 C5.67 15.97 5.34 18.94 5 22 C3.02 22 1.04 22 -1 22 C-1.02887814 18.52085059 -1.04675687 15.04173169 -1.0625 11.5625 C-1.07087891 10.56927734 -1.07925781 9.57605469 -1.08789062 8.55273438 C-1.09111328 7.60849609 -1.09433594 6.66425781 -1.09765625 5.69140625 C-1.10289307 4.81685791 -1.10812988 3.94230957 -1.11352539 3.04125977 C-1 1 -1 1 0 0 Z " fill="#07362B" transform="translate(394,311)"/>
<path d="M0 0 C4.78775956 3.53613714 9.46451416 7.14483704 14 11 C14 7.7 14 4.4 14 1 C15.98 1 17.96 1 20 1 C20 8.26 20 15.52 20 23 C16.4125144 21.2062572 13.83243778 19.3896203 10.75 16.875 C9.85796875 16.15054687 8.9659375 15.42609375 8.046875 14.6796875 C7.37140625 14.12539063 6.6959375 13.57109375 6 13 C5.67 15.97 5.34 18.94 5 22 C3.02 22 1.04 22 -1 22 C-1.02887814 18.52085059 -1.04675687 15.04173169 -1.0625 11.5625 C-1.07087891 10.56927734 -1.07925781 9.57605469 -1.08789062 8.55273438 C-1.09111328 7.60849609 -1.09433594 6.66425781 -1.09765625 5.69140625 C-1.10289307 4.81685791 -1.10812988 3.94230957 -1.11352539 3.04125977 C-1 1 -1 1 0 0 Z " fill="#07362B" transform="translate(294,311)"/>
<path d="M0 0 C1.32 0 2.64 0 4 0 C4.01981934 0.68102783 4.03963867 1.36205566 4.06005859 2.0637207 C4.15526983 5.14703917 4.26496466 8.22967649 4.375 11.3125 C4.4059375 12.38435547 4.436875 13.45621094 4.46875 14.56054688 C4.50742188 15.58857422 4.54609375 16.61660156 4.5859375 17.67578125 C4.6173584 18.62364502 4.6487793 19.57150879 4.68115234 20.5480957 C4.8489051 23.2530269 4.8489051 23.2530269 7 26 C8.901994 26.47558206 8.901994 26.47558206 11 26.375 C12.051875 26.38660156 12.051875 26.38660156 13.125 26.3984375 C15.41058594 26.140914 15.41058594 26.140914 17 23 C17.36696181 20.48497823 17.36696181 20.48497823 17.4140625 17.67578125 C17.45273438 16.64775391 17.49140625 15.61972656 17.53125 14.56054688 C17.57765625 12.95276367 17.57765625 12.95276367 17.625 11.3125 C17.66367188 10.22904297 17.70234375 9.14558594 17.7421875 8.02929688 C17.83650509 5.35303533 17.92210005 2.67678157 18 0 C19.32 0 20.64 0 22 0 C22.14541967 4.22880411 22.23411527 8.45696413 22.3125 12.6875 C22.35439453 13.88568359 22.39628906 15.08386719 22.43945312 16.31835938 C22.5628637 25.17923882 22.5628637 25.17923882 19.7578125 29.26953125 C15.78127568 31.76472362 12.65130503 32.29480102 8 32 C3.89786311 30.50831386 2.42931791 29.64397687 0 26 C-0.22705078 23.27270508 -0.22705078 23.27270508 -0.1953125 20.01953125 C-0.18886719 18.85615234 -0.18242188 17.69277344 -0.17578125 16.49414062 C-0.15902344 15.27919922 -0.14226562 14.06425781 -0.125 12.8125 C-0.11597656 11.58595703 -0.10695313 10.35941406 -0.09765625 9.09570312 C-0.07406017 6.06360705 -0.04113841 3.03190062 0 0 Z " fill="#08392D" transform="translate(123,353)"/>
<path d="M0 0 C0.66 0 1.32 0 2 0 C3.85604731 4.23382315 5.70733366 8.46968307 7.55419922 12.70751953 C8.18342077 14.14949913 8.81394967 15.59090897 9.44580078 17.03173828 C10.35271331 19.10041003 11.25493595 21.17107151 12.15625 23.2421875 C12.44060913 23.88807831 12.72496826 24.53396912 13.01794434 25.19943237 C15 29.77225659 15 29.77225659 15 32 C13.35 32 11.7 32 10 32 C8.35 28.37 6.7 24.74 5 21 C2.36 21 -0.28 21 -3 21 C-4.65 24.63 -6.3 28.26 -8 32 C-9.65 32 -11.3 32 -13 32 C-8.96831066 21.20360115 -4.51539619 10.60099911 0 0 Z M1 11 C0.34 12.65 -0.32 14.3 -1 16 C0.32 16 1.64 16 3 16 C2.67 14.35 2.34 12.7 2 11 C1.67 11 1.34 11 1 11 Z " fill="#07382C" transform="translate(333,352)"/>
<path d="M0 0 C0.66 0 1.32 0 2 0 C3.85604731 4.23382315 5.70733366 8.46968307 7.55419922 12.70751953 C8.18342077 14.14949913 8.81394967 15.59090897 9.44580078 17.03173828 C10.35271331 19.10041003 11.25493595 21.17107151 12.15625 23.2421875 C12.44060913 23.88807831 12.72496826 24.53396912 13.01794434 25.19943237 C15 29.77225659 15 29.77225659 15 32 C13.35 32 11.7 32 10 32 C8.35 28.37 6.7 24.74 5 21 C2.36 21 -0.28 21 -3 21 C-4.65 24.63 -6.3 28.26 -8 32 C-9.65 32 -11.3 32 -13 32 C-8.96831066 21.20360115 -4.51539619 10.60099911 0 0 Z M1 11 C0.34 12.65 -0.32 14.3 -1 16 C0.32 16 1.64 16 3 16 C2.67 14.35 2.34 12.7 2 11 C1.67 11 1.34 11 1 11 Z " fill="#07382C" transform="translate(209,352)"/>
<path d="M0 0 C2.66265527 2.1966906 3.75196339 3.71965862 4.41015625 7.1171875 C4.67086301 11.08795203 4.36420058 14.1833134 2.0625 17.5 C-1.38981532 20.31821658 -3.41176151 21.02371308 -7.78125 21.2421875 C-11.31562734 20.85639279 -13.37656412 19.30350467 -16 17 C-18.47753594 13.28369608 -18.65136747 10.30716741 -18 6 C-16.1955099 2.25221286 -14.90382971 0.49299802 -11.25 -1.5 C-7.04067072 -2.14758912 -3.89359822 -1.72312432 0 0 Z M-12 6.1875 C-13.24362763 8.94017021 -13.24362763 8.94017021 -12.5 11.6875 C-10.66440282 14.51737898 -9.18819807 15.07710056 -6 16 C-3.333492 13.83411155 -3.333492 13.83411155 -1 11 C-1.08014327 7.55383944 -1.5556104 6.4443896 -4 4 C-7.84863632 3.42679885 -9.31118475 3.24660832 -12 6.1875 Z " fill="#07382C" transform="translate(183,313)"/>
<path d="M0 0 C3.55163779 2.54791407 5.23401738 4.68385185 6 8.9375 C6.26104673 13.00675792 5.36131066 15.61545472 3 19 C0.6449865 21.14721819 -0.96105314 21.93766319 -4.1484375 22.12890625 C-8.28803864 21.90198459 -10.56771611 21.30620109 -14 18.875 C-16.43526653 15.37430436 -17 13.25895297 -17 9 C-15.47102022 4.81542377 -13.84541472 2.28321499 -10 0 C-6.1544104 -1.2818632 -3.93271581 -0.94927623 0 0 Z M-10 6 C-11.60559331 9.21118663 -10.86197805 11.61365767 -10 15 C-7.24301816 17.28138945 -7.24301816 17.28138945 -4.4375 16.8125 C-1.66744883 16.16627558 -1.66744883 16.16627558 0 13 C-0.31730524 9.36060068 -0.31730524 9.36060068 -1 6 C-5.59854277 4.87680587 -5.59854277 4.87680587 -10 6 Z " fill="#07382C" transform="translate(131,312)"/>
<path d="M0 0 C3.13076077 1.56538038 3.51033024 4.18575719 4.8203125 7.37109375 C5.21559647 8.32738426 5.21559647 8.32738426 5.61886597 9.30299377 C6.17506893 10.65257993 6.72797122 12.00353036 7.27783203 13.35571289 C8.12138289 15.4286115 8.9758067 17.49676193 9.83203125 19.56445312 C14 29.70766788 14 29.70766788 14 32 C12.35 32 10.7 32 9 32 C8.3291288 30.3767313 7.66342971 28.75132422 7 27.125 C6.62875 26.22007812 6.2575 25.31515625 5.875 24.3828125 C5 22 5 22 5 20 C2.03 20 -0.94 20 -4 20 C-4.29003906 20.92232422 -4.29003906 20.92232422 -4.5859375 21.86328125 C-4.84632813 22.67152344 -5.10671875 23.47976563 -5.375 24.3125 C-5.75785156 25.51326172 -5.75785156 25.51326172 -6.1484375 26.73828125 C-7 29 -7 29 -9 32 C-11.625 32.1875 -11.625 32.1875 -14 32 C-12.421487 28.1646644 -10.83631685 24.33211374 -9.25 20.5 C-8.8065625 19.42234375 -8.363125 18.3446875 -7.90625 17.234375 C-5.47324415 11.36653737 -2.92829728 5.63765644 0 0 Z M0 11 C-0.66 12.65 -1.32 14.3 -2 16 C-0.35 16 1.3 16 3 16 C2.34 14.35 1.68 12.7 1 11 C0.67 11 0.34 11 0 11 Z " fill="#07372C" transform="translate(410,352)"/>
<path d="M0 0 C2.99983163 3.22481901 3.90120358 5.19551484 4.4375 9.5625 C3.83054774 14.33141064 2.45559559 16.71565095 -1.125 19.875 C-5.30186866 21.50942687 -8.73767461 21.36425243 -13 20 C-16.27634314 17.32543417 -17.63024101 15.87850772 -18.4375 11.77734375 C-18.64665778 7.86217159 -18.29149261 5.52692895 -16.375 2.0625 C-11.23778464 -2.39876597 -6.05158364 -2.92278614 0 0 Z M-11.875 5.1875 C-13.45090926 7.72646491 -13.57287294 9.06402619 -13 12 C-10.60140956 14.33630748 -10.60140956 14.33630748 -8 16 C-4.81180193 15.07710056 -3.33559718 14.51737898 -1.5 11.6875 C-0.75637237 8.94017021 -0.75637237 8.94017021 -2 6.1875 C-3.85476368 3.70710795 -3.85476368 3.70710795 -7 3.5 C-9.93663262 3.78959523 -9.93663262 3.78959523 -11.875 5.1875 Z " fill="#07382C" transform="translate(334,313)"/>
<path d="M0 0 C2.99983163 3.22481901 3.90120358 5.19551484 4.4375 9.5625 C3.83054774 14.33141064 2.45559559 16.71565095 -1.125 19.875 C-5.30186866 21.50942687 -8.73767461 21.36425243 -13 20 C-16.27634314 17.32543417 -17.63024101 15.87850772 -18.4375 11.77734375 C-18.64665778 7.86217159 -18.29149261 5.52692895 -16.375 2.0625 C-11.23778464 -2.39876597 -6.05158364 -2.92278614 0 0 Z M-11.875 5.1875 C-13.45090926 7.72646491 -13.57287294 9.06402619 -13 12 C-10.60140956 14.33630748 -10.60140956 14.33630748 -8 16 C-4.81180193 15.07710056 -3.33559718 14.51737898 -1.5 11.6875 C-0.75637237 8.94017021 -0.75637237 8.94017021 -2 6.1875 C-3.85476368 3.70710795 -3.85476368 3.70710795 -7 3.5 C-9.93663262 3.78959523 -9.93663262 3.78959523 -11.875 5.1875 Z " fill="#07382C" transform="translate(109,313)"/>
<path d="M0 0 C2.9375 1.5 2.9375 1.5 5 3 C4.34 4.32 3.68 5.64 3 7 C1.906875 6.62875 0.81375 6.2575 -0.3125 5.875 C-2.1378125 5.441875 -2.1378125 5.441875 -4 5 C-4.99 5.66 -5.98 6.32 -7 7 C-6.87689357 8.93347205 -6.87689357 8.93347205 -6 11 C-3.76389278 12.46705758 -3.76389278 12.46705758 -1.0625 13.5625 C3.79661017 15.69491525 3.79661017 15.69491525 6 19 C6.6779661 26.11864407 6.6779661 26.11864407 4.125 29.4375 C0.25256722 32.28487705 -2.07300951 32.13868194 -6.734375 31.58984375 C-10.14485 30.70194422 -11.85654323 28.69660691 -14 26 C-12.68 25.34 -11.36 24.68 -10 24 C-9.01 24.66 -8.02 25.32 -7 26 C-4.94290404 26.24055468 -4.94290404 26.24055468 -2.8125 26.125 C-1.554375 26.08375 -0.29625 26.0425 1 26 C1.29628737 23.15465796 1.29628737 23.15465796 0 20 C-2.46481905 18.40154969 -4.95684744 17.24164859 -7.65234375 16.078125 C-10 15 -10 15 -12 13 C-12.95160582 10.06588205 -13.09829808 8.37531996 -12.3125 5.375 C-9.32338749 -0.03387025 -5.9995376 -0.63153027 0 0 Z " fill="#07372B" transform="translate(174,353)"/>
<path d="M0 0 C1.98 0 3.96 0 6 0 C6 2.64 6 5.28 6 8 C8.64 8 11.28 8 14 8 C14 5.36 14 2.72 14 0 C15.98 0 17.96 0 20 0 C20 6.93 20 13.86 20 21 C18.02 21 16.04 21 14 21 C14 18.03 14 15.06 14 12 C11.36 12 8.72 12 6 12 C6 14.97 6 17.94 6 21 C4.02 21 2.04 21 0 21 C0 14.07 0 7.14 0 0 Z " fill="#07382C" transform="translate(271,312)"/>
<path d="M0 0 C1.98 0 3.96 0 6 0 C6 2.64 6 5.28 6 8 C8.64 8 11.28 8 14 8 C14 5.36 14 2.72 14 0 C15.98 0 17.96 0 20 0 C20 6.93 20 13.86 20 21 C18.02 21 16.04 21 14 21 C14 18.03 14 15.06 14 12 C11.36 12 8.72 12 6 12 C6 14.97 6 17.94 6 21 C4.02 21 2.04 21 0 21 C0 14.07 0 7.14 0 0 Z " fill="#07382C" transform="translate(69,312)"/>
<path d="M0 0 C2 2.125 2 2.125 3 4 C2.01 4.99 1.02 5.98 0 7 C-0.53625 6.67 -1.0725 6.34 -1.625 6 C-4.5391061 4.77300796 -6.86867708 4.85766714 -10 5 C-10.66 6.98 -11.32 8.96 -12 11 C-10.68 12.32 -9.36 13.64 -8 15 C-4.34683329 13.75023244 -3.21934164 13.32901247 -1 10 C1.625 9.8125 1.625 9.8125 4 10 C3.70242275 13.2733498 3.30181397 15.53470347 1.5 18.3125 C-2.16431943 20.78591562 -5.60869577 21.33486549 -10 21 C-13.84676353 19.04164766 -15.60966175 17.58550738 -18 14 C-18.46581983 9.26416503 -18.44892907 6.93239115 -16.375 2.625 C-11.56619858 -2.68999104 -6.28104692 -2.77308915 0 0 Z " fill="#07382C" transform="translate(265,313)"/>
<path d="M0 0 C2 2.125 2 2.125 3 4 C2.01 4.99 1.02 5.98 0 7 C-0.53625 6.67 -1.0725 6.34 -1.625 6 C-4.5391061 4.77300796 -6.86867708 4.85766714 -10 5 C-10.66 6.98 -11.32 8.96 -12 11 C-10.68 12.32 -9.36 13.64 -8 15 C-4.34683329 13.75023244 -3.21934164 13.32901247 -1 10 C1.625 9.8125 1.625 9.8125 4 10 C3.70242275 13.2733498 3.30181397 15.53470347 1.5 18.3125 C-2.16431943 20.78591562 -5.60869577 21.33486549 -10 21 C-13.84676353 19.04164766 -15.60966175 17.58550738 -18 14 C-18.46581983 9.26416503 -18.44892907 6.93239115 -16.375 2.625 C-11.56619858 -2.68999104 -6.28104692 -2.77308915 0 0 Z " fill="#07382C" transform="translate(63,313)"/>
<path d="M0 0 C10.09873003 -0.48668578 10.09873003 -0.48668578 14.125 1.6875 C16.34335376 4.42346963 17 5.46884468 17 9 C16.26442612 11.35632988 15.43502493 13.63101822 14.49609375 15.9140625 C14.33238281 16.60242188 14.16867187 17.29078125 14 18 C14.66 18.99 15.32 19.98 16 21 C9.6 21.36923077 9.6 21.36923077 6.5625 19.5 C6.046875 19.005 5.53125 18.51 5 18 C5 18.99 5 19.98 5 21 C3.35 21 1.7 21 0 21 C0 14.07 0 7.14 0 0 Z M5 5 C5 7.64 5 10.28 5 13 C6.65 12.67 8.3 12.34 10 12 C10.67958603 9.60280568 10.67958603 9.60280568 11 7 C10.34 6.34 9.68 5.68 9 5 C7.68 5 6.36 5 5 5 Z " fill="#08392D" transform="translate(454,312)"/>
<path d="M0 0 C10.09873003 -0.48668578 10.09873003 -0.48668578 14.125 1.6875 C16.34335376 4.42346963 17 5.46884468 17 9 C16.26442612 11.35632988 15.43502493 13.63101822 14.49609375 15.9140625 C14.33238281 16.60242188 14.16867187 17.29078125 14 18 C14.66 18.99 15.32 19.98 16 21 C9.6 21.36923077 9.6 21.36923077 6.5625 19.5 C6.046875 19.005 5.53125 18.51 5 18 C5 18.99 5 19.98 5 21 C3.35 21 1.7 21 0 21 C0 14.07 0 7.14 0 0 Z M5 5 C5 7.64 5 10.28 5 13 C6.65 12.67 8.3 12.34 10 12 C10.67958603 9.60280568 10.67958603 9.60280568 11 7 C10.34 6.34 9.68 5.68 9 5 C7.68 5 6.36 5 5 5 Z " fill="#08392D" transform="translate(359,312)"/>
<path d="M0 0 C11.39017735 -0.4952251 11.39017735 -0.4952251 14.328125 1.890625 C17.10491747 5.39405475 17.26699778 7.55003702 17 12 C15.79293121 15.34265205 15.07943151 15.94704566 12 18 C8.8125 18.125 8.8125 18.125 6 18 C6 18.99 6 19.98 6 21 C4.02 21 2.04 21 0 21 C0 14.07 0 7.14 0 0 Z M6 5 C6 7.64 6 10.28 6 13 C7.65 12.67 9.3 12.34 11 12 C11 10.02 11 8.04 11 6 C9.35 5.67 7.7 5.34 6 5 Z " fill="#07382D" transform="translate(340,312)"/>
<path d="M0 0 C8.25 0 16.5 0 25 0 C25 1.65 25 3.3 25 5 C21.7 5 18.4 5 15 5 C15 13.58 15 22.16 15 31 C13.35 31 11.7 31 10 31 C10 22.42 10 13.84 10 5 C6.7 5 3.4 5 0 5 C0 3.35 0 1.7 0 0 Z " fill="#07382B" transform="translate(283,353)"/>
<path d="M0 0 C1.98 0 3.96 0 6 0 C6.33 4.95 6.66 9.9 7 15 C9.97 15.495 9.97 15.495 13 16 C13.33 10.72 13.66 5.44 14 0 C15.65 0 17.3 0 19 0 C19.10845031 2.56364483 19.18749744 5.12266279 19.25 7.6875 C19.30027344 8.7693457 19.30027344 8.7693457 19.3515625 9.87304688 C19.42291404 13.77954343 19.27534719 15.56934334 17.109375 18.95703125 C13.97706662 21.99072992 13.97706662 21.99072992 10.94140625 22.01953125 C4.48847593 21.45794618 4.48847593 21.45794618 2 19.125 C-0.00953968 14.85472817 -0.1054766 11.49694938 -0.0625 6.8125 C-0.05347656 5.54019531 -0.04445313 4.26789063 -0.03515625 2.95703125 C-0.02355469 1.98121094 -0.01195312 1.00539063 0 0 Z " fill="#07392D" transform="translate(432,312)"/>
<path d="M0 0 C3.96 0 7.92 0 12 0 C12 1.65 12 3.3 12 5 C10.02 5 8.04 5 6 5 C6 5.99 6 6.98 6 8 C8.64 8 11.28 8 14 8 C14 9.32 14 10.64 14 12 C11.36 12 8.72 12 6 12 C6 13.65 6 15.3 6 17 C8.64 17 11.28 17 14 17 C14 18.32 14 19.64 14 21 C9.38 21 4.76 21 0 21 C0 14.07 0 7.14 0 0 Z " fill="#07372C" transform="translate(416,312)"/>
<path d="M0 0 C3.96 0 7.92 0 12 0 C12 1.65 12 3.3 12 5 C10.02 5 8.04 5 6 5 C6 5.99 6 6.98 6 8 C8.64 8 11.28 8 14 8 C14 9.32 14 10.64 14 12 C11.36 12 8.72 12 6 12 C6 13.65 6 15.3 6 17 C8.64 17 11.28 17 14 17 C14 18.32 14 19.64 14 21 C9.38 21 4.76 21 0 21 C0 14.07 0 7.14 0 0 Z " fill="#07372C" transform="translate(377,312)"/>
<path d="M0 0 C0 0.99 0 1.98 0 3 C-1 4 -1 4 -3.5625 4.0625 C-4.7690625 4.0315625 -4.7690625 4.0315625 -6 4 C-6 4.66 -6 5.32 -6 6 C-5.071875 6.0825 -4.14375 6.165 -3.1875 6.25 C0 7 0 7 1.9375 8.625 C3.49800943 12.11319754 2.99154664 14.36432898 2 18 C0.4375 20 0.4375 20 -2 21 C-4.9167757 21.08086111 -7.08841391 20.65745492 -10 20 C-10.66 19.01 -11.32 18.02 -12 17 C-10.8125 15.4375 -10.8125 15.4375 -9 14 C-6.3125 14.3125 -6.3125 14.3125 -4 15 C-3.67 14.01 -3.34 13.02 -3 12 C-4.11375 11.7525 -5.2275 11.505 -6.375 11.25 C-10 10 -10 10 -11.5 8.1875 C-12.1535808 5.328084 -12.05757614 3.74969796 -11 1 C-6.99808889 -2.54454984 -4.73174881 -2.09077273 0 0 Z " fill="#07392C" transform="translate(41,313)"/>
<path d="M0 0 C3.96 0 7.92 0 12 0 C12 1.65 12 3.3 12 5 C9.69 5 7.38 5 5 5 C5 5.99 5 6.98 5 8 C7.64 8 10.28 8 13 8 C13 9.32 13 10.64 13 12 C10.36 12 7.72 12 5 12 C5 13.65 5 15.3 5 17 C7.97 17 10.94 17 14 17 C14 18.32 14 19.64 14 21 C9.38 21 4.76 21 0 21 C0 14.07 0 7.14 0 0 Z " fill="#08392D" transform="translate(232,312)"/>
<path d="M0 0 C3.96 0 7.92 0 12 0 C12 1.65 12 3.3 12 5 C10.02 5 8.04 5 6 5 C6 5.99 6 6.98 6 8 C8.31 8 10.62 8 13 8 C13 9.32 13 10.64 13 12 C10.69 12 8.38 12 6 12 C6 14.97 6 17.94 6 21 C4.02 21 2.04 21 0 21 C0 14.07 0 7.14 0 0 Z " fill="#07382D" transform="translate(189,312)"/>
<path d="M0 0 C4.95 0 9.9 0 15 0 C15 1.65 15 3.3 15 5 C13.35 5 11.7 5 10 5 C10 10.28 10 15.56 10 21 C8.35 21 6.7 21 5 21 C5 15.72 5 10.44 5 5 C3.35 5 1.7 5 0 5 C0 3.35 0 1.7 0 0 Z " fill="#08392D" transform="translate(215,312)"/>
<path d="M0 0 C1.65 0 3.3 0 5 0 C5 5.61 5 11.22 5 17 C7.64 17 10.28 17 13 17 C13 18.32 13 19.64 13 21 C8.71 21 4.42 21 0 21 C0 14.07 0 7.14 0 0 Z " fill="#08392D" transform="translate(139,312)"/>
<path d="M0 0 C13.2 0 26.4 0 40 0 C40 0.33 40 0.66 40 1 C26.8 1 13.6 1 0 1 C0 0.67 0 0.34 0 0 Z " fill="#004600" transform="translate(221,96)"/>
<path d="M0 0 C0.66 0.33 1.32 0.66 2 1 C-0.97 3.475 -0.97 3.475 -4 6 C-2.25 1.125 -2.25 1.125 0 0 Z M-6 6 C-5.01 6.495 -5.01 6.495 -4 7 C-4.99 7.495 -4.99 7.495 -6 8 C-6 7.34 -6 6.68 -6 6 Z M-9 8 C-8.34 8.66 -7.68 9.32 -7 10 C-8.65 11.32 -10.3 12.64 -12 14 C-12 11 -12 11 -10.5 9.3125 C-9.7575 8.6628125 -9.7575 8.6628125 -9 8 Z " fill="#03231C" transform="translate(161,234)"/>
<path d="M0 0 C5.94 0 11.88 0 18 0 C18 0.33 18 0.66 18 1 C12.06 1 6.12 1 0 1 C0 0.67 0 0.34 0 0 Z " fill="#00C600" transform="translate(172,113)"/>
<path d="M0 0 C2.31 0 4.62 0 7 0 C7 0.33 7 0.66 7 1 C4.69 1 2.38 1 0 1 C0 0.67 0 0.34 0 0 Z " fill="#006D00" transform="translate(208,110)"/>
<path d="M0 0 C1.65 0 3.3 0 5 0 C5 0.33 5 0.66 5 1 C3.35 1 1.7 1 0 1 C0 0.67 0 0.34 0 0 Z " fill="#009900" transform="translate(190,110)"/>
<path d="M0 0 C4 1 4 1 4 1 Z " fill="#000000" transform="translate(150,133)"/>
<path d="M0 0 C3 1 3 1 3 1 Z " fill="#005500" transform="translate(222,116)"/>
<path d="M0 0 C3 1 3 1 3 1 Z " fill="#000000" transform="translate(237,113)"/>
<path d="M0 0 C2 1 2 1 2 1 Z " fill="#007F00" transform="translate(211,141)"/>
<path d="M0 0 C2 1 2 1 2 1 Z " fill="#000000" transform="translate(303,139)"/>
<path d="M0 0 C2 1 2 1 2 1 Z " fill="#000000" transform="translate(378,124)"/>
<path d="M0 0 C2 1 2 1 2 1 Z " fill="#000000" transform="translate(264,121)"/>
<path d="M0 0 C2 1 2 1 2 1 Z " fill="#004000" transform="translate(240,119)"/>
<path d="M0 0 C2 1 2 1 2 1 Z " fill="#007F00" transform="translate(342,116)"/>
<path d="M0 0 C2 1 2 1 2 1 Z " fill="#000000" transform="translate(383,102)"/>
<path d="M0 0 C2 1 2 1 2 1 Z " fill="#000000" transform="translate(293,102)"/>
<path d="M0 0 C2 1 2 1 2 1 Z " fill="#000000" transform="translate(199,102)"/>
<path d="M0 0 C2 1 2 1 2 1 Z " fill="#000000" transform="translate(305,99)"/>
<path d="M0 0 C2 1 2 1 2 1 Z " fill="#000000" transform="translate(362,96)"/>
<path d="M0 0 C2 1 2 1 2 1 Z " fill="#000000" transform="translate(319,96)"/>
<path d="M0 0 C2 1 2 1 2 1 Z " fill="#000000" transform="translate(335,93)"/>
<path d="" fill="#000000" transform="translate(0,0)"/>
<path d="" fill="#000000" transform="translate(0,0)"/>
<path d="" fill="#000000" transform="translate(0,0)"/>
<path d="" fill="#000000" transform="translate(0,0)"/>
<path d="" fill="#000000" transform="translate(0,0)"/>
<path d="" fill="#000000" transform="translate(0,0)"/>
<path d="" fill="#000000" transform="translate(0,0)"/>
<path d="" fill="#000000" transform="translate(0,0)"/>
<path d="" fill="#008000" transform="translate(0,0)"/>
<path d="" fill="#000000" transform="translate(0,0)"/>
<path d="" fill="#000000" transform="translate(0,0)"/>
<path d="" fill="#00FF00" transform="translate(0,0)"/>
<path d="" fill="#000000" transform="translate(0,0)"/>
<path d="" fill="#000000" transform="translate(0,0)"/>
<path d="" fill="#000000" transform="translate(0,0)"/>
<path d="" fill="#000000" transform="translate(0,0)"/>
<path d="" fill="#000000" transform="translate(0,0)"/>
<path d="" fill="#000000" transform="translate(0,0)"/>
<path d="" fill="#000000" transform="translate(0,0)"/>
<path d="" fill="#000000" transform="translate(0,0)"/>
<path d="" fill="#000000" transform="translate(0,0)"/>
<path d="" fill="#000000" transform="translate(0,0)"/>
<path d="" fill="#000000" transform="translate(0,0)"/>
<path d="" fill="#00FF00" transform="translate(0,0)"/>
<path d="" fill="#000000" transform="translate(0,0)"/>
<path d="" fill="#000000" transform="translate(0,0)"/>
<path d="" fill="#000000" transform="translate(0,0)"/>
<path d="" fill="#00FF00" transform="translate(0,0)"/>
<path d="" fill="#000000" transform="translate(0,0)"/>
<path d="" fill="#000000" transform="translate(0,0)"/>
<path d="" fill="#000000" transform="translate(0,0)"/>
<path d="" fill="#000000" transform="translate(0,0)"/>
<path d="" fill="#000000" transform="translate(0,0)"/>
<path d="" fill="#000000" transform="translate(0,0)"/>
<path d="" fill="#000000" transform="translate(0,0)"/>
<path d="" fill="#000000" transform="translate(0,0)"/>
<path d="" fill="#000000" transform="translate(0,0)"/>
<path d="" fill="#000000" transform="translate(0,0)"/>
<path d="" fill="#00FF00" transform="translate(0,0)"/>
<path d="" fill="#000000" transform="translate(0,0)"/>
<path d="" fill="#000000" transform="translate(0,0)"/>
<path d="" fill="#000000" transform="translate(0,0)"/>
<path d="" fill="#000000" transform="translate(0,0)"/>
<path d="" fill="#000000" transform="translate(0,0)"/>
<path d="" fill="#000000" transform="translate(0,0)"/>
<path d="" fill="#00FF00" transform="translate(0,0)"/>
<path d="" fill="#000000" transform="translate(0,0)"/>
<path d="" fill="#000000" transform="translate(0,0)"/>
<path d="" fill="#000000" transform="translate(0,0)"/>
<path d="" fill="#000000" transform="translate(0,0)"/>
<path d="" fill="#000000" transform="translate(0,0)"/>
<path d="" fill="#000000" transform="translate(0,0)"/>
<path d="" fill="#000000" transform="translate(0,0)"/>
<path d="" fill="#000000" transform="translate(0,0)"/>
<path d="" fill="#000000" transform="translate(0,0)"/>
<path d="" fill="#000000" transform="translate(0,0)"/>
<path d="" fill="#000000" transform="translate(0,0)"/>
<path d="" fill="#000000" transform="translate(0,0)"/>
<path d="" fill="#000000" transform="translate(0,0)"/>
<path d="" fill="#000000" transform="translate(0,0)"/>
<path d="" fill="#008000" transform="translate(0,0)"/>
<path d="" fill="#00FF00" transform="translate(0,0)"/>
<path d="" fill="#000000" transform="translate(0,0)"/>
<path d="" fill="#000000" transform="translate(0,0)"/>
<path d="" fill="#000000" transform="translate(0,0)"/>
<path d="" fill="#000000" transform="translate(0,0)"/>
<path d="" fill="#000000" transform="translate(0,0)"/>
<path d="" fill="#000000" transform="translate(0,0)"/>
<path d="" fill="#000000" transform="translate(0,0)"/>
<path d="" fill="#000000" transform="translate(0,0)"/>
<path d="" fill="#000000" transform="translate(0,0)"/>
<path d="" fill="#000000" transform="translate(0,0)"/>
<path d="" fill="#000000" transform="translate(0,0)"/>
<path d="" fill="#000000" transform="translate(0,0)"/>
<path d="" fill="#000000" transform="translate(0,0)"/>
<path d="" fill="#000000" transform="translate(0,0)"/>
<path d="" fill="#000000" transform="translate(0,0)"/>
<path d="" fill="#000000" transform="translate(0,0)"/>
<path d="" fill="#000000" transform="translate(0,0)"/>
<path d="" fill="#000000" transform="translate(0,0)"/>
<path d="" fill="#000000" transform="translate(0,0)"/>
</svg>
